<svg width="80" height="31" viewBox="0 0 80 31" fill="none" xmlns="http://www.w3.org/2000/svg">
<path d="M42.2467 14.7432L40.343 29.7942H36.2368L38.1405 14.7432H34.2335L34.654 10.9691H46.9175L46.4969 14.7432H42.2467Z" fill="#003399"/>
<path d="M60.2103 29.7939L56.1483 29.8507L54.5102 22.6322H51.6879L50.7803 29.8507H46.5966L48.9651 10.9688L55.7056 10.9347C57.7089 10.9347 59.026 11.6509 60.0111 12.6626C60.9961 13.6857 61.3724 15.0271 61.1621 16.6982C61.0293 17.7895 60.6973 18.7444 60.1882 19.5856C59.679 20.4154 59.4023 20.927 58.0852 21.5636L60.2103 29.7939ZM51.6879 18.6762L55.0415 18.608C55.7167 18.608 56.2701 18.4602 56.7128 18.1532C57.1555 17.8463 57.1998 17.3461 57.2773 16.755C57.4322 15.55 57.0338 14.7429 55.6613 14.7429H52.2302L51.6879 18.6762Z" fill="#003399"/>
<path d="M74.4548 26.2816L74.0563 29.8625L62.4681 29.8284L64.8366 10.9465L76.4249 10.9806L75.9933 14.3227H68.1571L67.5926 18.9494H73.9346L73.5251 22.2688H67.1831L66.6297 26.2816H74.4548Z" fill="#003399"/>
<path d="M13.6026 26.2245L13.2042 29.8054L1.61591 29.7826L3.9734 10.8893L15.5617 10.9234L15.13 14.2656H7.29382L6.72935 18.8923H13.0603L12.6508 22.2117H6.30877L5.75536 26.2245H13.6026Z" fill="#003399"/>
<path d="M28.1571 14.5503L28.7991 8.11615L26.6408 7.72965L31.2119 0.340576L34.0896 9.08242L31.8539 8.75275L31.2341 14.7436L28.1571 14.5503Z" fill="#33CCFF"/>
<path d="M19.0039 29.7943H15.606L17.0448 17.7444L20.2545 13.9248L27.3602 22.1096L28.1571 14.5614L31.6215 10.9124L30.1605 25.3495L26.9839 26.8159L20.166 19.3132L19.0039 29.7943Z" fill="#33CCFF"/>
<path d="M17.0558 17.7787L17.7421 10.8444L20.2656 13.9137L17.0558 17.7787Z" fill="#33CCFF"/>
<path d="M26.9175 26.7142L29.6402 29.7949L30.1715 25.2592L26.9175 26.7142Z" fill="#33CCFF"/>
</svg>
